<?xml version="1.0" encoding="UTF-8"?>
<svg id="Layer_2" data-name="Layer 2" xmlns="http://www.w3.org/2000/svg" viewBox="0 0 425.23 425.13">
  <defs>
    <style>
      .cls-1 {
        fill: #ff712c;
      }

      .cls-2 {
        fill: #a1e8d9;
      }

      .cls-3 {
        fill: #fff6c5;
      }
    </style>
  </defs>
  <g id="Layer_1-2" data-name="Layer 1">
    <g>
      <g>
        <path class="cls-3" d="M411.22,257.07c0,21.18-4.27,41.76-12.66,61.2-7.75,17.89-18.66,33.96-32.45,47.74-13.8,13.79-29.86,24.71-47.76,32.45-19.42,8.41-40.02,12.68-61.2,12.68s-41.76-4.26-61.18-12.68c-17.9-7.74-33.97-18.66-47.76-32.45-6.23-6.23-11.89-12.94-16.89-20.05-6.12-8.63-11.31-17.89-15.56-27.69-.89-2.08-1.75-4.17-2.53-6.27.1.03.2.08.3.12.66.25,1.32.5,2,.73.64.25,1.31.5,1.95.69.38.15.78.3,1.17.41.86.3,1.72.6,2.58.86.26.1.55.18.81.25,1.09.36,2.17.68,3.26.99.1.03.2.07.3.1,1.22.35,2.46.69,3.69,1.01,1.26.33,2.53.64,3.8.94,2.64.63,5.32,1.17,8,1.64,1.16.21,2.33.41,3.5.6h.03c1.29.2,2.58.38,3.87.55,1.31.17,2.6.31,3.9.45,1.07.12,2.15.21,3.22.3.56.05,1.12.1,1.67.13.26.02.53.03.79.05.99.07,1.97.13,2.94.17,1.06.05,2.1.08,3.16.12,1.31.03,2.61.05,3.92.05h.07c14.55,0,28.83-2.02,42.65-6.02.79-.23,1.57-.46,2.35-.69,5.47-1.67,10.88-3.65,16.18-5.95,2.23-.98,4.45-1.98,6.63-3.06,2.17-1.07,4.33-2.18,6.45-3.36,2.12-1.16,4.2-2.36,6.27-3.64,10.3-6.3,19.8-13.8,28.42-22.42,13.79-13.79,24.7-29.84,32.45-47.74,8.4-19.42,12.66-40.02,12.66-61.2,0-1.32-.02-2.63-.05-3.95-.03-1.09-.07-2.17-.12-3.26-.03-.89-.08-1.77-.17-2.66,0-.36-.03-.73-.07-1.07-.02-.51-.05-1.01-.12-1.5-.18-2.41-.43-4.81-.74-7.19-.17-1.31-.35-2.6-.55-3.88-.18-1.21-.38-2.4-.6-3.57-.46-2.68-1.01-5.34-1.64-7.97-.3-1.27-.61-2.55-.94-3.8-.33-1.26-.68-2.53-1.04-3.79-.26-.94-.55-1.88-.84-2.81-.26-.88-.55-1.74-.84-2.61-.03-.15-.08-.3-.15-.46-.31-.98-.64-1.95-.99-2.93-.05-.12-.08-.23-.13-.35-.36-1.04-.76-2.07-1.16-3.11,2.1.78,4.2,1.64,6.27,2.53,9.82,4.25,19.08,9.46,27.71,15.56v.02c7.12,5.01,13.8,10.65,20.05,16.88,13.79,13.79,24.7,29.86,32.45,47.76,8.4,19.42,12.66,40.02,12.66,61.18Z"/>
        <path class="cls-1" d="M14.09,168.07c0-21.18,4.27-41.76,12.66-61.2,7.75-17.89,18.66-33.96,32.45-47.74,13.8-13.79,29.86-24.71,47.76-32.45,19.42-8.41,40.02-12.68,61.2-12.68s41.76,4.26,61.18,12.68c17.9,7.74,33.97,18.66,47.76,32.45,6.23,6.23,11.89,12.94,16.89,20.05,6.12,8.63,11.31,17.89,15.56,27.69.89,2.08,1.75,4.17,2.53,6.27-.1-.03-.2-.08-.3-.12-.66-.25-1.32-.5-2-.73-.64-.25-1.31-.5-1.95-.69-.38-.15-.78-.3-1.17-.41-.86-.3-1.72-.6-2.58-.86-.26-.1-.55-.18-.81-.25-1.09-.36-2.17-.68-3.26-.99-.1-.03-.2-.07-.3-.1-1.22-.35-2.46-.69-3.69-1.01-1.26-.33-2.53-.64-3.8-.94-2.64-.63-5.32-1.17-8-1.64-1.16-.21-2.33-.41-3.5-.6h-.03c-1.29-.2-2.58-.38-3.87-.55-1.31-.17-2.6-.31-3.9-.45-1.07-.12-2.15-.21-3.22-.3-.56-.05-1.12-.1-1.67-.13-.26-.02-.53-.03-.79-.05-.99-.07-1.97-.13-2.94-.17-1.06-.05-2.1-.08-3.16-.12-1.31-.03-2.61-.05-3.92-.05h-.07c-14.55,0-28.83,2.02-42.65,6.02-.79.23-1.57.46-2.35.69-5.47,1.67-10.88,3.65-16.18,5.95-2.23.98-4.45,1.98-6.63,3.06-2.17,1.07-4.33,2.18-6.45,3.36-2.12,1.16-4.2,2.36-6.27,3.64-10.3,6.3-19.8,13.8-28.42,22.42-13.79,13.79-24.7,29.84-32.45,47.74-8.4,19.42-12.66,40.02-12.66,61.2,0,1.32.02,2.63.05,3.95.03,1.09.07,2.17.12,3.26.03.89.08,1.77.17,2.66,0,.36.03.73.07,1.07.02.51.05,1.01.12,1.5.18,2.41.43,4.81.74,7.19.17,1.31.35,2.6.55,3.88.18,1.21.38,2.4.6,3.57.46,2.68,1.01,5.34,1.64,7.97.3,1.27.61,2.55.94,3.8.33,1.26.68,2.53,1.04,3.79.26.94.55,1.88.84,2.81.26.88.55,1.74.84,2.61.03.15.08.3.15.46.31.98.64,1.95.99,2.93.05.12.08.23.13.35.36,1.04.76,2.07,1.16,3.11-2.1-.78-4.2-1.64-6.27-2.53-9.82-4.25-19.08-9.46-27.71-15.56v-.02c-7.12-5.01-13.8-10.65-20.05-16.88-13.79-13.79-24.7-29.86-32.45-47.76-8.4-19.42-12.66-40.02-12.66-61.18Z"/>
        <path class="cls-2" d="M322.22,168.06c0,21.18-4.27,41.77-12.66,61.2-7.75,17.9-18.66,33.95-32.45,47.74-8.61,8.61-18.12,16.12-28.42,22.42-2.07,1.27-4.15,2.48-6.27,3.64-2.12,1.17-4.28,2.28-6.45,3.36-2.18,1.06-4.4,2.08-6.63,3.04-5.31,2.3-10.71,4.28-16.18,5.97-.78.23-1.55.46-2.35.69-13.82,4-28.1,6.02-42.65,6.02h-.07c-1.31,0-2.61-.02-3.92-.05-1.06-.03-2.1-.07-3.16-.12-.99-.05-1.97-.1-2.94-.17-.26-.02-.53-.03-.79-.05-.55-.03-1.11-.08-1.67-.13-1.07-.08-2.15-.18-3.22-.3-1.31-.13-2.6-.28-3.9-.45-1.29-.17-2.58-.35-3.87-.55h-.03c-1.17-.18-2.35-.38-3.5-.6-2.68-.46-5.36-1.01-8-1.64-1.27-.3-2.55-.61-3.8-.94-1.22-.31-2.46-.66-3.69-1.01-.1-.03-.2-.07-.3-.1-1.09-.31-2.17-.63-3.26-.99-.26-.07-.55-.15-.81-.25-.86-.26-1.72-.56-2.58-.86-.4-.12-.79-.26-1.17-.41-.64-.2-1.31-.45-1.95-.69-.68-.23-1.34-.48-2-.73-.1-.03-.2-.08-.3-.12l-.02-.02c-.41-1.09-.81-2.2-1.21-3.29-.4-1.11-.78-2.22-1.14-3.32-.36-1.09-.71-2.18-1.06-3.29,0-.03-.02-.08-.05-.15-.76-2.5-1.45-4.99-2.08-7.52-.21-.84-.41-1.69-.61-2.53-.53-2.26-.99-4.55-1.42-6.84-.21-1.14-.41-2.3-.6-3.46-.18-1.14-.35-2.3-.51-3.45-.13-.89-.25-1.8-.35-2.69-.07-.48-.12-.96-.17-1.44-.1-.94-.2-1.88-.28-2.84-.1-1.11-.2-2.23-.26-3.36-.02-.17-.03-.35-.03-.53-.08-1.01-.13-2.03-.18-3.06-.05-1.06-.08-2.12-.12-3.17-.03-1.32-.05-2.64-.05-3.97,0-7.95.6-15.8,1.79-23.54,1.21-7.75,2.99-15.37,5.36-22.88.4-1.24.81-2.48,1.24-3.72.86-2.5,1.79-4.96,2.76-7.41.5-1.22,1.01-2.45,1.54-3.65.98-2.23,1.98-4.45,3.04-6.63.55-1.09,1.09-2.17,1.64-3.24,1.69-3.22,3.45-6.38,5.36-9.47,6.28-10.28,13.79-19.79,22.4-28.4,5.17-5.17,10.66-9.94,16.45-14.28,4.83-3.62,9.85-6.96,15.08-9.98,1.04-.61,2.1-1.21,3.16-1.79.79-.45,1.59-.88,2.4-1.29,1.6-.84,3.22-1.67,4.88-2.46.81-.4,1.64-.78,2.46-1.16,1.11-.51,2.22-1.01,3.34-1.49,19.44-8.41,40.02-12.68,61.2-12.68,1.32,0,2.64.02,3.97.05,1.07.03,2.13.07,3.21.12.96.05,1.92.1,2.86.17.25.02.5.03.74.05.84.05,1.67.12,2.5.2.83.07,1.65.13,2.46.23h.02c1.27.12,2.55.26,3.82.43.05,0,.12.02.18.03,1.09.13,2.18.28,3.27.46.25.02.5.07.74.1,1.07.17,2.13.35,3.21.55,2.63.46,5.24.99,7.84,1.6,1.01.23,2.02.48,3.03.74.15.03.3.07.43.1.79.2,1.57.41,2.36.64.43.1.84.21,1.27.35.84.23,1.7.48,2.55.74.28.08.55.17.83.25.71.21,1.41.43,2.1.66.71.23,1.42.46,2.12.71.4.13.79.26,1.17.41.66.21,1.31.45,1.95.69.68.23,1.34.48,2,.73.1.03.2.08.3.12v.02c.4,1.04.79,2.07,1.16,3.11.05.12.08.23.13.35.35.98.68,1.95.99,2.93.07.17.12.31.15.46.3.88.58,1.74.84,2.61.3.93.58,1.87.84,2.81.36,1.26.71,2.53,1.04,3.79.33,1.26.64,2.53.94,3.8.63,2.63,1.17,5.29,1.64,7.97.21,1.17.41,2.36.6,3.57.2,1.29.38,2.58.55,3.88.31,2.38.56,4.78.74,7.19.05.5.08.99.12,1.5.03.35.07.71.07,1.07.07.88.12,1.77.17,2.66.05,1.09.08,2.17.12,3.26.03,1.32.05,2.63.05,3.95Z"/>
      </g>
      <path d="M168.11,14.09c65.67,0,121.73,41.1,143.88,98.98,57.96,22.11,99.14,78.21,99.14,143.94,0,85.06-68.96,154.02-154.02,154.02-65.67,0-121.73-41.1-143.88-98.98C55.27,289.95,14.09,233.84,14.09,168.11,14.09,83.05,83.05,14.09,168.11,14.09M168.11,0c-22.69,0-44.71,4.45-65.44,13.22-20.02,8.47-38,20.59-53.43,36.02s-27.55,33.41-36.02,53.43C4.45,123.41,0,145.42,0,168.11c0,34.74,10.51,68.08,30.39,96.42,18.22,25.98,43.03,46.05,72.02,58.35,12.32,28.95,32.4,53.72,58.36,71.9,28.33,19.85,61.64,30.34,96.35,30.34,22.69,0,44.71-4.45,65.44-13.22,20.02-8.47,38-20.59,53.43-36.02,15.43-15.43,27.55-33.41,36.02-53.43,8.77-20.73,13.22-42.75,13.22-65.44,0-34.74-10.51-68.08-30.39-96.42-18.22-25.98-43.03-46.05-72.02-58.35-12.32-28.95-32.4-53.72-58.36-71.9C236.13,10.49,202.82,0,168.11,0h0Z"/>
    </g>
  </g>
</svg>